<?xml version="1.0" encoding="UTF-8"?>
<svg version="1.1" xmlns="http://www.w3.org/2000/svg" width="2560" height="731">
<path d="M0 0 C0.91507324 -0.00161133 1.83014648 -0.00322266 2.77294922 -0.00488281 C9.26317688 0.10153375 15.40052062 1.07641595 21.75 2.375 C22.8225 2.56320313 23.895 2.75140625 25 2.9453125 C38.88340589 5.74565857 52.69850103 11.45660286 63.75 20.375 C64.513125 20.95121094 65.27625 21.52742188 66.0625 22.12109375 C68.32339498 23.83586038 70.54017447 25.59508598 72.75 27.375 C73.41773438 27.89449219 74.08546875 28.41398437 74.7734375 28.94921875 C80.09624596 33.29372447 83.93635805 38.41486378 87.8671875 43.99609375 C88.79917969 45.17365234 88.79917969 45.17365234 89.75 46.375 C90.41 46.375 91.07 46.375 91.75 46.375 C92.430625 48.045625 92.430625 48.045625 93.125 49.75 C94.47465986 53.33699008 94.47465986 53.33699008 96.75 55.375 C97.93771659 57.6330925 99.07835972 59.89150897 100.1875 62.1875 C102.56885388 67.10648981 102.56885388 67.10648981 105.2890625 71.84375 C107.17122381 75.10482094 108.41782317 78.53242314 109.6875 82.0625 C110.2125857 83.49644417 110.7386259 84.93003918 111.265625 86.36328125 C111.51892578 87.05373535 111.77222656 87.74418945 112.03320312 88.45556641 C112.9494148 90.90899153 113.93711219 93.32983103 114.9375 95.75 C116.56182418 99.75352101 117.85433047 103.79959389 119.0390625 107.953125 C119.56005327 109.72792871 120.13582206 111.48689666 120.7421875 113.234375 C122.18521535 117.73125249 123.03566774 122.31265751 123.96875 126.9375 C124.66551931 130.30013705 124.66551931 130.30013705 125.72265625 133.1628418 C126.79430965 136.51354138 127.41499893 139.73435096 127.96875 143.20703125 C128.17886719 144.50060547 128.38898438 145.79417969 128.60546875 147.12695312 C128.82067654 148.48041092 129.03551798 149.83392701 129.25 151.1875 C131.00976533 162.31065016 131.00976533 162.31065016 133.29443359 173.33374023 C134.11910633 177.02885747 134.70689733 180.7638481 135.3125 184.5 C135.50102539 185.63888672 135.50102539 185.63888672 135.69335938 186.80078125 C136.26832981 190.29876891 136.80577197 193.79060443 137.27734375 197.3046875 C137.57516018 200.28025215 137.57516018 200.28025215 138.75 202.375 C138.729375 203.550625 138.70875 204.72625 138.6875 205.9375 C138.62209552 209.92717321 139.31517413 213.44608898 140.3125 217.296875 C140.75 219.375 140.75 219.375 140.75 223.375 C141.41 223.705 142.07 224.035 142.75 224.375 C142.98851712 226.48758022 143.21918749 228.60134203 143.41015625 230.71875 C144.00920057 235.40093549 145.43697345 239.85165494 146.75 244.375 C147.23159568 246.16601528 147.71076499 247.95768477 148.1875 249.75 C154.22600927 271.93152884 154.22600927 271.93152884 164.55859375 292.3125 C166.07611326 294.93955016 166.59122235 297.35822467 166.75 300.375 C167.41 300.375 168.07 300.375 168.75 300.375 C169.28625 301.48875 169.8225 302.6025 170.375 303.75 C175.79481728 315.64930456 175.79481728 315.64930456 184.75 324.375 C184.75 325.365 184.75 326.355 184.75 327.375 C185.54857422 327.69404297 185.54857422 327.69404297 186.36328125 328.01953125 C189.66199509 329.89294156 192.21511746 332.45780773 194.9375 335.0625 C212.59784761 351.52169784 231.1444562 353.8483043 254.75 354.375 C258.24258503 354.22377467 261.69747845 353.97368156 265.17578125 353.62890625 C267.75 353.375 267.75 353.375 270.75 353.375 C283.02979665 352.09327038 294.93015868 349.95311523 306.75 346.375 C307.94882812 346.02050781 309.14765625 345.66601562 310.3828125 345.30078125 C325.72097254 340.68560781 340.34366151 334.16598949 354.02734375 325.84375 C356.75 324.375 356.75 324.375 359.75 324.375 C359.75 323.715 359.75 323.055 359.75 322.375 C360.74 322.375 361.73 322.375 362.75 322.375 C363.08 321.385 363.41 320.395 363.75 319.375 C365.96484375 317.55078125 365.96484375 317.55078125 368.6875 315.6875 C370.03134766 314.75357422 370.03134766 314.75357422 371.40234375 313.80078125 C373.75 312.375 373.75 312.375 375.75 312.375 C376.08 311.385 376.41 310.395 376.75 309.375 C378.39639965 308.01672029 380.06295807 306.68245749 381.75 305.375 C382.08 304.715 382.41 304.055 382.75 303.375 C383.74 303.375 384.73 303.375 385.75 303.375 C385.976875 302.83875 386.20375 302.3025 386.4375 301.75 C388.70292525 297.65065906 391.46954235 294.37137569 395.14453125 291.51171875 C397.87521926 289.27230894 399.92217307 286.94302177 402.125 284.1875 C403.29289063 282.72957031 403.29289063 282.72957031 404.484375 281.2421875 C405.23203125 280.29601562 405.9796875 279.34984375 406.75 278.375 C407.37390625 277.59382813 407.9978125 276.81265625 408.640625 276.0078125 C412.27702957 271.40497608 415.66473548 266.6679719 419 261.84375 C420.68714519 259.46367017 422.44351443 257.16536563 424.25 254.875 C435.50718784 241.02822374 435.50718784 241.02822374 440.75 224.375 C441.41 224.375 442.07 224.375 442.75 224.375 C443.08 221.735 443.41 219.095 443.75 216.375 C444.41 216.375 445.07 216.375 445.75 216.375 C445.90855469 215.82714844 446.06710937 215.27929688 446.23046875 214.71484375 C446.73407068 213.00371013 447.24823826 211.29567105 447.76953125 209.58984375 C448.29000789 207.883261 448.8075302 206.17565354 449.30224609 204.46142578 C449.89102644 202.42651827 450.50621968 200.40096329 451.125 198.375 C451.30957764 197.7162085 451.49415527 197.05741699 451.68432617 196.37866211 C452.69618759 193.15185995 453.31047317 191.63530891 456.26953125 189.8828125 C458.75 189.375 458.75 189.375 461.0625 190.25 C461.8978125 190.806875 461.8978125 190.806875 462.75 191.375 C462.75 192.035 462.75 192.695 462.75 193.375 C463.41 193.375 464.07 193.375 464.75 193.375 C464.42 197.665 464.09 201.955 463.75 206.375 C463.09 206.375 462.43 206.375 461.75 206.375 C461.95625 206.9525 462.1625 207.53 462.375 208.125 C462.83661261 210.89467567 462.17944945 212.02061267 460.75 214.375 C462.73 215.035 464.71 215.695 466.75 216.375 C466.75 219.675 466.75 222.975 466.75 226.375 C466.09 226.375 465.43 226.375 464.75 226.375 C465.08 227.1175 465.41 227.86 465.75 228.625 C466.75 231.375 466.75 231.375 466.75 235.375 C467.74 235.705 468.73 236.035 469.75 236.375 C469.73259766 237.51775391 469.73259766 237.51775391 469.71484375 238.68359375 C469.65952706 245.01340322 469.9134074 251.10055549 470.75 257.375 C470.09 257.375 469.43 257.375 468.75 257.375 C468.69392578 258.2103125 468.69392578 258.2103125 468.63671875 259.0625 C467.59892119 271.10909128 461.93352591 281.3546289 455.17578125 291.203125 C451.12647143 297.34215102 451.12647143 297.34215102 449.75 304.375 C448.7842643 305.40812853 447.78008524 306.40601888 446.75 307.375 C445.33105376 309.85958056 443.96624146 312.3495176 442.625 314.875 C439.16883565 321.22025139 435.41614901 326.62476715 430.69140625 332.10546875 C428.43677506 334.74116436 426.60462596 337.45039753 424.75 340.375 C423.75612666 341.71290641 422.7573108 343.04718122 421.75 344.375 C421.09 345.365 420.43 346.355 419.75 347.375 C418.76080987 348.38569426 417.76004948 349.38515151 416.75 350.375 C415.74280647 351.53546211 414.74343925 352.70274168 413.75 353.875 C410.59576215 357.49528156 407.30940653 360.95890073 403.9375 364.375 C403.45732422 364.86806641 402.97714844 365.36113281 402.48242188 365.86914062 C401.27716165 367.07782003 400.01738026 368.23162544 398.75 369.375 C398.09 369.375 397.43 369.375 396.75 369.375 C396.75 370.365 396.75 371.355 396.75 372.375 C394.5610071 374.28851747 392.39358307 376.02672181 390.0625 377.75 C385.64036548 381.06546234 381.6182409 384.40291371 377.75 388.375 C370.44098909 394.83530427 362.09211742 401.26096086 352.75 404.375 C352.09 405.035 351.43 405.695 350.75 406.375 C349.76 406.375 348.77 406.375 347.75 406.375 C345.1649759 407.57166284 342.64905827 408.81117008 340.125 410.125 C338.67257634 410.86595971 337.21945607 411.60555559 335.765625 412.34375 C335.06888672 412.69824219 334.37214844 413.05273438 333.65429688 413.41796875 C330.07937067 415.21459833 326.44156018 416.83513132 322.75 418.375 C321.86183594 418.74625 320.97367188 419.1175 320.05859375 419.5 C313.04079861 422.375 313.04079861 422.375 310.75 422.375 C310.42 423.035 310.09 423.695 309.75 424.375 C307.59765625 424.71875 307.59765625 424.71875 304.8125 424.875 C301.16558478 425.13616017 297.7433343 425.53250267 294.1875 426.375 C288.53185487 427.60647112 282.8483522 427.79893082 277.08178711 428.03320312 C273.20260302 428.19764999 269.54285263 428.45896174 265.75 429.375 C265.75 428.715 265.75 428.055 265.75 427.375 C264.945625 427.51808594 264.945625 427.51808594 264.125 427.6640625 C247.84677352 429.9665748 228.96245195 425.14626096 213.75 419.375 C213.02554687 419.11332031 212.30109375 418.85164063 211.5546875 418.58203125 C204.01922852 415.73447332 196.89582134 412.04359789 189.73364258 408.37939453 C188.36654755 407.68718174 186.99356415 407.00651769 185.6159668 406.33544922 C182.10948802 404.62416111 178.87028265 402.95454662 175.8125 400.5 C173.15588874 398.42404072 170.47897812 396.54362766 167.625 394.75 C158.92476219 389.03573231 151.02991885 381.78331248 143.75 374.375 C143.028125 373.715 142.30625 373.055 141.5625 372.375 C139.75 370.375 139.75 370.375 138.75 367.75 C137.50652184 364.79673938 136.56705272 364.70067187 133.75 363.375 C132.38755204 361.73204805 131.05135125 360.06675663 129.75 358.375 C129.09 358.045 128.43 357.715 127.75 357.375 C127.42 356.385 127.09 355.395 126.75 354.375 C126.09 354.045 125.43 353.715 124.75 353.375 C123.94758878 352.07253541 123.20666572 350.73179819 122.5 349.375 C120.21976439 345.12082908 117.65366459 341.17444036 114.88671875 337.22265625 C113.75 335.375 113.75 335.375 113.75 333.375 C113.09 333.375 112.43 333.375 111.75 333.375 C110.42997444 330.81613496 109.11886218 328.25332932 107.8125 325.6875 C107.43931641 324.96626953 107.06613281 324.24503906 106.68164062 323.50195312 C104.81034761 319.80994258 103.26730444 316.53806904 102.75 312.375 C84.49857758 308.29843513 66.26155872 304.30808745 47.8359375 301.09375 C44.69818952 300.5453225 41.56727719 299.96738685 38.4375 299.375 C33.15902102 298.41675305 27.8633139 297.57402555 22.5625 296.75 C21.71840576 296.61464844 20.87431152 296.47929687 20.00463867 296.33984375 C16.03412813 295.73445694 12.21995163 295.30321701 8.19921875 295.3515625 C7.06097656 295.35929687 5.92273438 295.36703125 4.75 295.375 C4.42 295.045 4.09 294.715 3.75 294.375 C1.56707226 294.14018307 -0.62203174 293.96136677 -2.8125 293.8125 C-4.01003906 293.72871094 -5.20757812 293.64492188 -6.44140625 293.55859375 C-7.36824219 293.49800781 -8.29507813 293.43742187 -9.25 293.375 C-16.84479123 314.48743637 -16.84479123 314.48743637 -20.25 336.375 C-20.91 336.375 -21.57 336.375 -22.25 336.375 C-22.311875 337.509375 -22.37375 338.64375 -22.4375 339.8125 C-23.03791221 345.46712842 -24.77234318 350.70573368 -26.44091797 356.11474609 C-27.98897385 361.22526416 -28.95805045 366.02259157 -29.25 371.375 C-29.91 371.375 -30.57 371.375 -31.25 371.375 C-31.353125 372.48875 -31.45625 373.6025 -31.5625 374.75 C-32.08217198 379.04493607 -33.2656381 382.98179773 -34.62890625 387.078125 C-35.42402205 389.6219919 -35.42402205 389.6219919 -35.25 393.375 C-33.29072937 395.0893618 -31.29119788 396.75905168 -29.25 398.375 C-29.25 399.035 -29.25 399.695 -29.25 400.375 C-28.59 400.375 -27.93 400.375 -27.25 400.375 C-25.55662439 402.01452267 -23.89579227 403.68771717 -22.25 405.375 C-20.08213761 407.33991929 -17.85743615 409.23405523 -15.625 411.125 C-15.05265625 411.61871094 -14.4803125 412.11242187 -13.890625 412.62109375 C-11.35847828 414.7704741 -9.43137739 416.31454087 -6.25 417.375 C-6.25 418.035 -6.25 418.695 -6.25 419.375 C-5.67378906 419.64957031 -5.09757813 419.92414063 -4.50390625 420.20703125 C-2.27357419 421.36278391 -0.26163309 422.64743724 1.8125 424.0625 C6.26341434 427.07406393 10.799352 429.93122239 15.3671875 432.76171875 C17.44895681 434.17117896 19.01109272 435.58554309 20.75 437.375 C24.03032301 439.17136736 27.41899136 440.67869978 30.8359375 442.19140625 C36.66412264 444.77756721 42.47615845 447.39925296 48.2890625 450.01953125 C61.77376797 457.53676575 61.77376797 457.53676575 75.75 459.375 C76.08 460.035 76.41 460.695 76.75 461.375 C78.63806578 462.18495469 78.63806578 462.18495469 80.94140625 462.8125 C81.80443359 463.06773437 82.66746094 463.32296875 83.55664062 463.5859375 C84.92079102 463.97652344 84.92079102 463.97652344 86.3125 464.375 C87.19486328 464.63539063 88.07722656 464.89578125 88.98632812 465.1640625 C91.56926697 465.9200446 94.15734341 466.65310923 96.75 467.375 C97.53101074 467.59542969 98.31202148 467.81585937 99.11669922 468.04296875 C102.9871612 469.30676534 102.9871612 469.30676534 106.75 468.375 C106.75 469.035 106.75 469.695 106.75 470.375 C112.36 470.705 117.97 471.035 123.75 471.375 C123.75 471.705 123.75 472.035 123.75 472.375 C127.38 472.375 131.01 472.375 134.75 472.375 C134.75 472.705 134.75 473.035 134.75 473.375 C139.99174022 474.38566233 145.17972038 474.73965521 150.5 475 C151.88022339 475.06755493 151.88022339 475.06755493 153.28833008 475.13647461 C160.8478322 475.44899034 168.27585213 475.16430908 175.81640625 474.6328125 C180.47890332 474.32722679 185.08016746 474.29968012 189.75 474.375 C190.08 473.715 190.41 473.055 190.75 472.375 C193.734375 471.99609375 193.734375 471.99609375 197.5 471.8125 C202.86388763 471.53757271 207.64922568 471.07525811 212.75 469.375 C213.08 469.705 213.41 470.035 213.75 470.375 C232.35583882 470.375 251.40037903 466.3693427 269.38671875 461.890625 C271.75 461.375 271.75 461.375 274.75 461.375 C275.08 460.715 275.41 460.055 275.75 459.375 C276.08 459.705 276.41 460.035 276.75 460.375 C284.39537172 458.46760298 284.39537172 458.46760298 291.75 455.6875 C294.75 454.375 294.75 454.375 297.75 454.375 C304.46556849 452.39113481 309.81384815 449.10121346 315.421875 444.9921875 C319.29598036 442.30111431 322.94616336 440.375 327.75 440.375 C328.08 439.715 328.41 439.055 328.75 438.375 C330.52705979 436.95449314 332.34614909 435.58611679 334.1875 434.25 C335.17621094 433.52554687 336.16492188 432.80109375 337.18359375 432.0546875 C339.75 430.375 339.75 430.375 341.75 430.375 C341.75 429.715 341.75 429.055 341.75 428.375 C342.74 428.375 343.73 428.375 344.75 428.375 C344.75 427.715 344.75 427.055 344.75 426.375 C345.74 426.375 346.73 426.375 347.75 426.375 C347.75 425.715 347.75 425.055 347.75 424.375 C348.38808594 424.03726562 349.02617188 423.69953125 349.68359375 423.3515625 C350.50988281 422.90554688 351.33617187 422.45953125 352.1875 422 C353.01121094 421.55914063 353.83492187 421.11828125 354.68359375 420.6640625 C356.88466578 419.54081441 356.88466578 419.54081441 357.75 417.375 C359.07 417.375 360.39 417.375 361.75 417.375 C362.08 419.355 362.41 421.335 362.75 423.375 C362.2653125 423.72804199 361.780625 424.08108398 361.28125 424.44482422 C359.09922012 426.03990904 356.92458105 427.64477716 354.75 429.25 C353.986875 429.80558594 353.22375 430.36117188 352.4375 430.93359375 C351.715625 431.46855469 350.99375 432.00351562 350.25 432.5546875 C349.24453125 433.29307861 349.24453125 433.29307861 348.21875 434.04638672 C347.7340625 434.4848291 347.249375 434.92327148 346.75 435.375 C346.75 436.035 346.75 436.695 346.75 437.375 C346.13125 437.49875 345.5125 437.6225 344.875 437.75 C342.55879168 438.24697356 342.55879168 438.24697356 340.75 440.375 C339.57416214 441.287367 338.38484697 442.18245578 337.1875 443.06640625 C332.66692122 446.42930071 328.20202357 449.85952267 323.75 453.3125 C322.99460937 453.89451172 322.23921875 454.47652344 321.4609375 455.07617188 C317.80479416 457.91250988 314.27600291 460.78712657 310.875 463.92578125 C306.283383 467.99061249 301.14980131 470.77060912 295.75 473.625 C294.33074219 474.3984375 294.33074219 474.3984375 292.8828125 475.1875 C277.64730992 483.375 277.64730992 483.375 270.75 483.375 C270.75 484.035 270.75 484.695 270.75 485.375 C269.89277344 485.62894531 269.03554688 485.88289063 268.15234375 486.14453125 C262.1792182 487.94252958 256.44146168 489.83200648 250.75 492.375 C249.42122715 492.72607209 248.08746189 493.05863852 246.75 493.375 C244.75297102 493.94557971 242.75599513 494.51634737 240.75952148 495.08886719 C228.90868161 498.46307331 217.05743372 501.29540055 204.75 502.375 C204.75 503.035 204.75 503.695 204.75 504.375 C204.09 504.375 203.43 504.375 202.75 504.375 C202.75 503.715 202.75 503.055 202.75 502.375 C201.574375 502.684375 200.39875 502.99375 199.1875 503.3125 C188.79403915 505.89701957 188.79403915 505.89701957 185.75 504.375 C185.75 505.035 185.75 505.695 185.75 506.375 C184.4196875 506.3440625 184.4196875 506.3440625 183.0625 506.3125 C179.85216615 506.26485681 179.85216615 506.26485681 177.1875 506.9375 C174.35187472 507.44645838 172.57598186 506.94019637 169.75 506.375 C165.24229252 506.17079178 160.89146047 506.18116709 156.4375 506.9375 C153.75 507.375 153.75 507.375 151.3125 506.875 C148.63592568 506.18718989 148.63592568 506.18718989 145.5 507 C140.65587008 507.48441299 137.20116353 506.16152142 132.75 504.375 C132.75 505.035 132.75 505.695 132.75 506.375 C128.0625 505.46354167 128.0625 505.46354167 125.875 504.84375 C123.51945441 504.32414436 121.40921905 504.27707031 119 504.3125 C117.80117188 504.32603516 117.80117188 504.32603516 116.578125 504.33984375 C115.97484375 504.35144531 115.3715625 504.36304688 114.75 504.375 C114.75 503.715 114.75 503.055 114.75 502.375 C114.09773438 502.32601563 113.44546875 502.27703125 112.7734375 502.2265625 C107.81720147 501.80257771 103.41980549 501.21834427 98.75 499.375 C98.42 500.035 98.09 500.695 97.75 501.375 C97.09 500.715 96.43 500.055 95.75 499.375 C93.55910825 498.76494212 93.55910825 498.76494212 91.0625 498.375 C85.3732325 497.32203657 80.0048554 495.8878903 74.625 493.75 C72.13231957 492.77795087 70.72285774 492.375 68 492.375 C64.99836694 492.375 64.10972187 491.19535687 61.75 489.375 C59.13399255 488.2337887 56.44192788 487.3201438 53.75 486.375 C52.49913109 485.89810623 51.24912818 485.41893482 50 484.9375 C47.66985779 484.05286676 45.345563 483.24907431 42.96484375 482.5078125 C36.66212946 480.53973913 31.15755591 478.12048276 25.4375 474.828125 C21.95668055 472.94605402 18.3669488 471.57163143 14.6484375 470.234375 C12.75 469.375 12.75 469.375 11.75 467.375 C9.90085028 466.48466865 8.05119895 465.5953661 6.19921875 464.7109375 C2.31254896 462.59093579 -1.12214792 459.89039984 -4.6640625 457.24609375 C-7.12187865 455.46770412 -9.64578716 454.00092642 -12.3125 452.55859375 C-17.21751967 449.56218053 -21.68572291 445.85810244 -26.25 442.375 C-27.54108411 441.43669789 -28.83267307 440.49908963 -30.125 439.5625 C-35.29207174 435.70079376 -40.10839443 431.40192414 -44.98046875 427.1796875 C-46.95693459 425.46822106 -48.94632685 423.82506005 -51 422.203125 C-53.91893856 419.83148742 -55.97415773 417.36610699 -58.25 414.375 C-58.25 413.715 -58.25 413.055 -58.25 412.375 C-59.0853125 412.065625 -59.0853125 412.065625 -59.9375 411.75 C-62.19696811 410.40653247 -63.2498656 409.32342298 -64.875 407.3125 C-66.92119397 404.36675287 -66.92119397 404.36675287 -69.25 403.375 C-69.25 402.715 -69.25 402.055 -69.25 401.375 C-70.24 401.375 -71.23 401.375 -72.25 401.375 C-72.25 400.715 -72.25 400.055 -72.25 399.375 C-72.91 399.375 -73.57 399.375 -74.25 399.375 C-75.91666667 397.70833333 -77.58333333 396.04166667 -79.25 394.375 C-82.27928672 392.2843655 -85.36764593 390.29914557 -88.4609375 388.3046875 C-90.02714844 387.28761719 -90.02714844 387.28761719 -91.625 386.25 C-92.68460937 385.56679688 -93.74421875 384.88359375 -94.8359375 384.1796875 C-95.63257813 383.58414062 -96.42921875 382.98859375 -97.25 382.375 C-97.25 381.715 -97.25 381.055 -97.25 380.375 C-98.0234375 380.0346875 -98.0234375 380.0346875 -98.8125 379.6875 C-102.84375181 377.51682595 -106.46704638 374.74243477 -110.09375 371.9609375 C-117.9875778 365.91115964 -126.43121929 360.76398996 -135.05859375 355.83203125 C-137.25 354.375 -137.25 354.375 -138.96484375 352.5390625 C-142.36322679 349.32076472 -146.3166538 347.23361791 -150.375 344.9375 C-151.22723145 344.44886475 -152.07946289 343.96022949 -152.95751953 343.45678711 C-157.96528583 340.60496983 -162.99477708 337.8640038 -168.2421875 335.47265625 C-172.31648294 333.24526906 -174.83875444 331.75083371 -176.2109375 327.16015625 C-177.4229894 316.26312359 -177.69349958 305.93506539 -174.25 295.375 C-174.25 294.385 -174.25 293.395 -174.25 292.375 C-173.59 292.375 -172.93 292.375 -172.25 292.375 C-172.745 290.89 -172.745 290.89 -173.25 289.375 C-172.875 287 -172.875 287 -172.25 284.375 C-171.30296429 280.07452638 -170.76586061 275.7436945 -170.25 271.375 C-169.73400614 267.00517703 -169.1846342 262.67866447 -168.25 258.375 C-167.89437659 256.66696932 -167.54020023 254.95863669 -167.1875 253.25 C-166.92259766 251.97769531 -166.92259766 251.97769531 -166.65234375 250.6796875 C-166.16401235 248.27237333 -166.16401235 248.27237333 -166.25 245.375 C-165.59 245.375 -164.93 245.375 -164.25 245.375 C-164.58 244.385 -164.91 243.395 -165.25 242.375 C-164.81160395 240.70700741 -164.36279529 239.0406243 -163.84667969 237.39501953 C-163.21731985 235.26436352 -162.75550334 233.14315799 -162.3203125 230.96484375 C-162.16433594 230.20236328 -162.00835937 229.43988281 -161.84765625 228.65429688 C-161.53209592 227.09083888 -161.22481981 225.52568638 -160.92578125 223.95898438 C-159.69731938 218.06136863 -157.76173507 213.59123682 -153.125 209.5 C-151.25 208.375 -151.25 208.375 -149.25 208.375 C-149.25 200.125 -149.25 191.875 -149.25 183.375 C-149.91 183.375 -150.57 183.375 -151.25 183.375 C-151.11722656 182.85035156 -150.98445313 182.32570313 -150.84765625 181.78515625 C-149.60080186 176.31537896 -149.05379335 170.97095207 -148.8125 165.375 C-148.28335852 153.79613942 -146.15257456 142.51010762 -143.77734375 131.18359375 C-143.17449528 127.97286746 -142.68444675 124.75246957 -142.19555664 121.52270508 C-140.43513943 109.92908427 -138.47353843 98.97239451 -133.25 88.375 C-132.89164063 87.58609375 -132.53328125 86.7971875 -132.1640625 85.984375 C-129.41806035 80.12377981 -126.02816162 75.06919342 -122.1171875 69.91796875 C-120.32565218 67.47803257 -118.7984208 64.97290601 -117.25 62.375 C-116.04280828 60.88189445 -114.83377611 59.38955076 -113.58203125 57.93359375 C-112.66373546 56.85910689 -111.76629752 55.76656049 -110.88671875 54.66015625 C-109.71848717 53.19555914 -108.48840675 51.78075902 -107.25 50.375 C-106.59 50.375 -105.93 50.375 -105.25 50.375 C-105.1571875 49.50875 -105.1571875 49.50875 -105.0625 48.625 C-103.93373786 45.49919715 -101.83616702 44.39347182 -99.25 42.375 C-97.93834743 40.25839573 -97.93834743 40.25839573 -97.25 38.375 C-96.59 38.375 -95.93 38.375 -95.25 38.375 C-95.25 37.715 -95.25 37.055 -95.25 36.375 C-93.63600386 35.05769433 -91.95586161 33.82095733 -90.25 32.625 C-86.9614227 30.30634487 -83.74292744 27.97882442 -80.625 25.4375 C-57.96826025 8.3398366 -28.05854581 0.04609585 0 0 Z M-26.296875 71.3046875 C-29.23639475 72.91554432 -32.34022744 74.04946131 -35.46484375 75.25 C-49.83770175 81.0555864 -63.67387015 89.05829587 -72.25 102.375 C-73.01957031 103.53902344 -73.01957031 103.53902344 -73.8046875 104.7265625 C-86.23701951 124.50234451 -93.62701196 145.25121598 -96.03051758 168.42089844 C-96.24004896 170.28640364 -96.50348999 172.14561803 -96.76953125 174.00390625 C-97.22074386 177.16973129 -97.55042794 180.31353656 -97.8125 183.5 C-97.89628906 184.49257813 -97.98007813 185.48515625 -98.06640625 186.5078125 C-98.23499783 189.14071073 -98.2838105 191.7377812 -98.25 194.375 C-92.3553975 193.83655073 -86.49326562 193.15049072 -80.625 192.375 C-73.55259397 191.4479024 -66.50596834 190.96261492 -59.3828125 190.62109375 C-56.34691733 190.5800401 -56.34691733 190.5800401 -54.25 189.375 C-51.81568253 189.28844566 -49.41049385 189.25937113 -46.9765625 189.27734375 C-45.89633316 189.27946617 -45.89633316 189.27946617 -44.79428101 189.28163147 C-42.48781201 189.28723386 -40.18143963 189.29977183 -37.875 189.3125 C-36.32812642 189.31751601 -34.7812513 189.32207874 -33.234375 189.32617188 C-30.39011673 189.33434337 -27.54589545 189.34509212 -24.70166016 189.35913086 C-19.7623852 189.38720653 -19.7623852 189.38720653 -14.82421875 189.3046875 C-6.24829231 189.14222069 2.17031247 189.84691549 10.70239258 190.66357422 C18.92124326 191.93435402 18.92124326 191.93435402 26.75 190.375 C26.75 191.035 26.75 191.695 26.75 192.375 C27.69129761 192.47989746 27.69129761 192.47989746 28.65161133 192.58691406 C40.57564671 193.9379934 52.34262349 195.43914095 64.03442383 198.19238281 C67.96252379 199.32555352 67.96252379 199.32555352 71.75 198.375 C71.47736328 197.10269531 71.47736328 197.10269531 71.19921875 195.8046875 C70.67021722 193.33601369 70.14159877 190.86725778 69.61328125 188.3984375 C69.05189916 185.77780673 68.48608282 183.15825508 67.91796875 180.5390625 C67.65628906 179.32992187 67.39460937 178.12078125 67.125 176.875 C66.88523437 175.7715625 66.64546875 174.668125 66.3984375 173.53125 C65.77316711 170.48776521 65.24672507 167.44173736 64.75 164.375 C64.42364302 162.70695323 64.09274406 161.03975686 63.75 159.375 C63.09 159.375 62.43 159.375 61.75 159.375 C62.08 158.385 62.41 157.395 62.75 156.375 C62.5558542 154.29790688 62.5558542 154.29790688 62.04296875 152.06640625 C61.86830078 151.23689453 61.69363281 150.40738281 61.51367188 149.55273438 C61.32353516 148.68970703 61.13339844 147.82667969 60.9375 146.9375 C60.75896484 146.07833984 60.58042969 145.21917969 60.39648438 144.33398438 C59.54517122 140.37245852 58.68815681 136.96107299 56.75 133.375 C56.42 133.705 56.09 134.035 55.75 134.375 C55.42 133.715 55.09 133.055 54.75 132.375 C55.41 132.045 56.07 131.715 56.75 131.375 C56.47736328 130.55708984 56.47736328 130.55708984 56.19921875 129.72265625 C55.82216797 128.59150391 55.82216797 128.59150391 55.4375 127.4375 C55.16035156 126.60863281 54.88320313 125.77976562 54.59765625 124.92578125 C54.07825276 123.36278367 53.56398938 121.79805182 53.05859375 120.23046875 C52.31374184 117.93632487 51.53520091 115.65565172 50.75 113.375 C50.42515625 112.39660156 50.1003125 111.41820312 49.765625 110.41015625 C44.12161629 94.46389876 33.83958307 78.75752485 18.796875 70.2734375 C17.15532902 69.54139672 15.4519013 68.95300422 13.75 68.375 C12.739375 67.983125 11.72875 67.59125 10.6875 67.1875 C-0.57218324 64.18995569 -16.13270156 65.539295 -26.296875 71.3046875 Z M-82.25 222.375 C-97.90448742 222.55138859 -113.81960227 228.86829245 -128.25 234.375 C-129.24 234.705 -130.23 235.035 -131.25 235.375 C-132.38331013 236.99563607 -132.38331013 236.99563607 -133.25 239 C-133.75273437 240.08087891 -133.75273437 240.08087891 -134.265625 241.18359375 C-134.59046875 241.90675781 -134.9153125 242.62992188 -135.25 243.375 C-135.70632812 244.32052734 -135.70632812 244.32052734 -136.171875 245.28515625 C-137.40118477 247.92353334 -138.25 250.00439939 -138.25 252.9375 C-138.25 255.375 -138.25 255.375 -139.625 257.9375 C-141.54768535 262.00471901 -142.05991636 265.70028279 -142.70703125 270.125 C-143.43665358 274.49223581 -144.58095271 278.71237425 -145.76171875 282.9765625 C-146.5067819 285.37531504 -146.5067819 285.37531504 -145.25 287.375 C-145.91 287.375 -146.57 287.375 -147.25 287.375 C-147.31058594 287.96667969 -147.37117188 288.55835938 -147.43359375 289.16796875 C-147.94143362 293.95728938 -148.51308173 298.6143908 -149.7578125 303.27734375 C-150.7706793 307.10769215 -151.36740185 310.38333715 -151.25 314.375 C-151.745 315.365 -151.745 315.365 -152.25 316.375 C-151.198125 316.87 -150.14625 317.365 -149.0625 317.875 C-144.13020963 320.34114518 -139.50020211 323.24377639 -134.82421875 326.16015625 C-131.72042787 328.09387751 -128.58724755 329.97420527 -125.44433594 331.84350586 C-118.39298101 336.0376631 -111.48500549 340.35578556 -104.80078125 345.12109375 C-100.81259628 347.96107233 -96.89271932 350.64373357 -92.5625 352.9375 C-89.66015924 354.48744114 -87.29876235 356.09023808 -84.875 358.3125 C-80.74200006 362.05651171 -73.9953904 367.375 -68.25 367.375 C-68.51554687 366.85550781 -68.78109375 366.33601562 -69.0546875 365.80078125 C-70.25208678 363.37076506 -71.38255994 360.91443316 -72.5090332 358.45092773 C-75.62696487 351.65160396 -78.94761856 345.0131648 -82.58447266 338.4753418 C-84.57329825 334.85194074 -86.02828176 331.31831379 -87.25 327.375 C-88.94942103 322.84858001 -90.33644952 319.51275266 -94.8125 317.3125 C-98.98514807 314.96064382 -99.61903641 312.60084983 -101.25 308.375 C-101.75660156 307.25480469 -102.26320312 306.13460937 -102.78515625 304.98046875 C-109.86455733 289.13781928 -109.86455733 289.13781928 -108.75 280.5 C-106.84520609 276.53167935 -105.21824821 275.24681519 -101.25 273.375 C-97.02010182 272.77072883 -94.85502872 273.08412081 -91 274.9375 C-88.26073633 277.3654837 -87.38742572 279.09609902 -86.04882812 282.41967773 C-85.25050685 284.37375936 -84.37200554 286.26804518 -83.4609375 288.171875 C-76.40141499 303.23156135 -76.40141499 303.23156135 -77.25 311.375 C-77.91 312.365 -78.57 313.355 -79.25 314.375 C-78.94443656 318.57649725 -78.1972602 321.68960516 -76.25 325.375 C-75.60654678 326.72460103 -74.96741093 328.07626678 -74.33203125 329.4296875 C-70.77240172 336.99025551 -67.20827488 344.54196685 -63.4375 352 C-60.88097171 357.06549327 -58.49581729 362.16470389 -56.25 367.375 C-53.40296232 364.52796232 -53.08977776 361.18798996 -52.25 357.375 C-52.07412354 356.60551025 -51.89824707 355.83602051 -51.71704102 355.04321289 C-50.64222562 350.29815003 -49.64720215 345.54488691 -48.83984375 340.74609375 C-48.25 338.375 -48.25 338.375 -46.97265625 335.0625 C-44.45163825 328.50388431 -42.67246043 321.68984559 -40.75 314.9375 C-36.25277233 299.18239746 -36.25277233 299.18239746 -33.88916016 292.27807617 C-32.8879617 289.29704409 -32.03895399 286.27662591 -31.1875 283.25 C-30.86652344 282.11304688 -30.54554688 280.97609375 -30.21484375 279.8046875 C-29.89644531 278.67289062 -29.57804687 277.54109375 -29.25 276.375 C-28.58537676 274.04107715 -27.91784468 271.70800408 -27.25 269.375 C-27.86875 269.2925 -28.4875 269.21 -29.125 269.125 C-31.25 268.375 -31.25 268.375 -32.5 266.3125 C-32.7475 265.673125 -32.995 265.03375 -33.25 264.375 C-33.91 264.375 -34.57 264.375 -35.25 264.375 C-35.25 263.715 -35.25 263.055 -35.25 262.375 C-36.71690559 261.0422812 -38.25322501 259.78586131 -39.8125 258.5625 C-44.48567984 254.82395613 -49.0520149 250.99564768 -53.5625 247.0625 C-54.83718138 245.95305812 -56.11192145 244.84368368 -57.38671875 243.734375 C-58.02270996 243.18072266 -58.65870117 242.62707031 -59.31396484 242.05664062 C-62.49105165 239.29702222 -65.68145832 236.55304496 -68.875 233.8125 C-69.44259033 233.32418701 -70.01018066 232.83587402 -70.5949707 232.33276367 C-73.04146144 230.23477798 -75.50492236 228.17142116 -78.0234375 226.16015625 C-80.25 224.375 -80.25 224.375 -82.25 222.375 Z " fill="#B347D8" transform="translate(295.25,172.625)"/>
<path d="M0 0 C20.36834324 -0.06798862 40.73659316 -0.12313884 61.10502148 -0.15543652 C70.56460347 -0.17083829 80.02410943 -0.19179815 89.48364258 -0.22631836 C97.73839621 -0.2564274 105.99309471 -0.27562346 114.24790174 -0.28226548 C118.60984305 -0.28614173 122.97162679 -0.29510779 127.33351707 -0.31719017 C162.87160771 -0.49002199 162.87160771 -0.49002199 180 3 C180.74138403 3.14971567 181.48276806 3.29943134 182.24661827 3.45368385 C202.75460747 7.68217002 224.48851186 17.23615039 236.64550781 35.01513672 C246.93669058 50.86528055 250.23780204 66.47627289 250.3125 85.1875 C250.31805908 86.363125 250.32361816 87.53875 250.3293457 88.75 C250.24344043 99.21722769 249.14767923 109.26757198 245.3125 119.0625 C245.05122314 119.73877441 244.78994629 120.41504883 244.52075195 121.11181641 C237.96833258 137.43375546 226.6739085 150.01622059 210.5625 157 C209.77609131 157.34248779 208.98968262 157.68497559 208.17944336 158.0378418 C187.5606069 166.83363727 166.02080297 170.21708413 143.64453125 170.09765625 C142.73167358 170.09664917 141.81881592 170.09564209 140.8782959 170.09460449 C137.52301751 170.08943887 134.16775726 170.07547861 130.8125 170.0625 C123.284375 170.041875 115.75625 170.02125 108 170 C108 186.5 108 203 108 220 C120.54 220 133.08 220 146 220 C146 235.51 146 251.02 146 267 C97.82 267 49.64 267 0 267 C0 251.49 0 235.98 0 220 C11.55 220 23.1 220 35 220 C35 162.58 35 105.16 35 46 C23.45 46 11.9 46 0 46 C0 30.82 0 15.64 0 0 Z M108 46 C108 71.74 108 97.48 108 124 C137.92853973 124.93577746 137.92853973 124.93577746 165 113 C173.03166128 103.07626467 174.63280795 92.04011355 173.75390625 79.484375 C172.44612285 69.53133318 169.36502954 61.11527488 161.2890625 54.625 C152.78218106 48.79170987 142.68759983 47.55965489 132.625 46.8125 C131.21734375 46.6897168 131.21734375 46.6897168 129.78125 46.56445312 C122.45852418 45.97085342 115.40097174 46 108 46 Z " fill="#B347D7" transform="translate(869,231)"/>
<path d="M0 0 C2.49787189 2.23241861 4.72992651 4.5281422 7 7 C7.33 0.73 7.66 -5.54 8 -12 C38.69 -12 69.38 -12 101 -12 C101 2.85 101 17.7 101 33 C90.77 33 80.54 33 70 33 C70.02356567 39.71996338 70.02356567 39.71996338 70.04760742 46.57568359 C70.09746147 61.42751611 70.13066536 76.27935206 70.15543652 91.13124657 C70.17084742 100.13018461 70.1918252 109.12904288 70.22631836 118.12792969 C70.25639896 125.97943068 70.27561687 133.83087384 70.28226548 141.68243086 C70.28614644 145.8324517 70.29514371 149.98230724 70.31719017 154.13227463 C70.46867141 183.82487845 69.48008958 214.12955587 47.75 237 C36.27599867 247.67162362 23.05338471 253.41151384 7.9375 256.6875 C7.00873047 256.89955078 6.07996094 257.11160156 5.12304688 257.33007812 C-3.62434088 259.27598824 -12.15467085 260.15295827 -21.109375 260.203125 C-21.95030197 260.21009399 -22.79122894 260.21706299 -23.65763855 260.22424316 C-26.35514389 260.24153596 -29.05244155 260.24796241 -31.75 260.25 C-32.6704007 260.25100708 -33.59080139 260.25201416 -34.53909302 260.25305176 C-47.92856387 260.24312487 -60.86048464 259.77370406 -74 257 C-75.63014107 256.68324741 -77.26035086 256.36684823 -78.890625 256.05078125 C-92.56722476 253.29950389 -103.32811946 248.53732725 -115 241 C-114.09885051 236.52699959 -111.62164153 233.53884092 -108.875 230 C-107.78832078 228.5825996 -106.70242207 227.16460056 -105.6171875 225.74609375 C-105.03549805 224.98796387 -104.45380859 224.22983398 -103.85449219 223.44873047 C-101.87367957 220.83320249 -99.93772563 218.18843701 -98.0078125 215.53515625 C-97.34152832 214.62572266 -96.67524414 213.71628906 -95.98876953 212.77929688 C-94.67746111 210.98795878 -93.37355579 209.1911745 -92.07763672 207.38867188 C-91.4745166 206.57076172 -90.87139648 205.75285156 -90.25 204.91015625 C-89.71890625 204.17933838 -89.1878125 203.44852051 -88.640625 202.69555664 C-86.7360466 200.72720888 -85.71612106 200.21757979 -83 200 C-80.4139232 201.13857989 -78.02746301 202.32916548 -75.5625 203.6875 C-57.77393296 213.04979661 -37.3253577 216.32835967 -17.6953125 210.90625 C-9.03119114 207.99309615 -2.30181572 203.54757823 2.25 195.375 C7.98524392 182.29765503 7.34961899 168.99013851 7 155 C6.13761719 155.68964844 5.27523438 156.37929688 4.38671875 157.08984375 C-2.69353979 162.5967115 -9.81088059 167.2326034 -17.9375 171.0625 C-18.71714111 171.43173584 -19.49678223 171.80097168 -20.30004883 172.18139648 C-30.19934619 176.68299615 -38.80861582 177.36428009 -49.625 177.375 C-50.90246094 177.39949219 -52.17992187 177.42398438 -53.49609375 177.44921875 C-71.24670817 177.50317199 -87.97178922 171.25598413 -101 159 C-123.35319836 134.86722663 -130.181278 105.06562548 -129.15234375 72.89599609 C-127.74269463 46.09910857 -116.90187338 21.67578382 -97.46484375 3.05859375 C-69.93214332 -19.93622895 -28.73145987 -21.30090991 0 0 Z M-53 45 C-62.64605286 56.64630025 -64.17834423 67.20587389 -64.1875 81.9375 C-64.19974609 82.97068359 -64.21199219 84.00386719 -64.22460938 85.06835938 C-64.24989213 98.37551811 -60.81287621 109.50464914 -51.62890625 119.50390625 C-44.0146683 126.49731905 -35.60402889 128.57005567 -25.41015625 128.37109375 C-14.64447105 127.19957016 -6.19904105 121.38548888 0.5234375 113.12890625 C5.94774035 105.22257391 8.57925358 95.50185669 9 86 C9.0515625 85.34257812 9.103125 84.68515625 9.15625 84.0078125 C9.7932515 69.94069597 5.7958701 56.47705034 -3.1875 45.6875 C-9.07296476 39.4280425 -16.27756412 35.39834895 -24.91796875 34.796875 C-36.57355461 34.62976983 -44.51089844 36.71228223 -53 45 Z " fill="#B247D8" transform="translate(1678,323)"/>
<path d="M0 0 C1.15242188 0.01675781 2.30484375 0.03351563 3.4921875 0.05078125 C27.12219072 1.00580448 49.9978994 11.9926986 66.125 29.1875 C85.27065652 50.33702152 94.18621576 75.69883202 92.875 104.125 C91.68349573 122.31529845 86.29380006 139.52130641 75 154 C74.07937901 155.22262005 73.15881004 156.44527928 72.23828125 157.66796875 C66.52096559 165.15096703 60.87720763 171.68965525 53 177 C52.00355469 177.67417969 51.00710938 178.34835937 49.98046875 179.04296875 C37.24050385 187.25385302 24.89135906 191.8660836 10 194 C8.72253906 194.18433594 7.44507813 194.36867188 6.12890625 194.55859375 C-24.28620697 198.22239976 -52.72341737 191.40209971 -76.875 172.625 C-95.24845761 156.86079081 -106.81055793 133.03318128 -109 109 C-110.7463465 80.44515581 -104.52400012 55.27776226 -86 33 C-85.22785156 32.02546875 -84.45570312 31.0509375 -83.66015625 30.046875 C-70.5117042 14.33299189 -46.62324202 3.02386989 -26.6953125 0.59765625 C-17.80461217 -0.13819536 -8.91210721 -0.18603802 0 0 Z M-34 57 C-43.13352088 68.83974929 -45.18154622 82.68385483 -45.25 97.1875 C-45.270625 98.26064453 -45.29125 99.33378906 -45.3125 100.43945312 C-45.38086109 114.56456321 -40.93551347 128.73744753 -31.12890625 139.24609375 C-23.23205701 145.75193836 -14.09695318 148.85460105 -4 148 C4.84980698 146.36320184 12.5635366 142.39156668 18.25 135.3125 C29.71707137 118.36671676 30.26564679 95.67562804 26.49707031 75.99316406 C24.31452759 67.24155366 19.41303752 58.2823441 12 53 C-2.94778368 44.05948888 -21.19055002 44.19055002 -34 57 Z " fill="#B347D8" transform="translate(1431,307)"/>
<path d="M0 0 C7.09799019 6.48086914 12.852172 13.16910832 17.484375 21.65576172 C18.07863281 22.73599609 18.67289063 23.81623047 19.28515625 24.92919922 C29.93339887 45.22242391 33.484375 65.76559434 33.484375 88.65576172 C-12.715625 88.98576172 -58.915625 89.31576172 -106.515625 89.65576172 C-102.677503 105.00824972 -99.62675633 116.64145982 -85.9609375 125.30419922 C-74.26774994 131.76720704 -60.68711498 134.10073009 -47.5703125 130.81982422 C-36.54982266 127.1463276 -26.81860397 121.21781205 -19.72265625 111.92919922 C-16.5233452 110.08322505 -14.5176419 111.13458967 -11.03865051 111.97787476 C-6.94069163 113.07891511 -2.91461868 114.36254616 1.11328125 115.69482422 C1.98838852 115.98054291 2.86349579 116.2662616 3.76512146 116.56063843 C6.5270219 117.46338419 9.28696038 118.37196522 12.046875 119.28076172 C13.93281545 119.89833796 15.81888206 120.51552911 17.70507812 121.13232422 C22.29964645 122.63569182 26.89246614 124.14429148 31.484375 125.65576172 C30.62313973 130.18486038 27.97528469 132.68321327 24.859375 135.90576172 C23.75413905 137.06880902 22.64996657 138.23286788 21.546875 139.39794922 C20.74830078 140.2385791 20.74830078 140.2385791 19.93359375 141.09619141 C18.15738236 143.00765339 16.50833724 145.00919744 14.859375 147.03076172 C1.22870096 162.58079082 -21.76181631 169.48004233 -41.515625 171.65576172 C-42.27657471 171.7433374 -43.03752441 171.83091309 -43.8215332 171.92114258 C-76.65165464 175.50569173 -110.23044016 171.15182454 -137.12109375 150.67138672 C-139.23807124 148.88939588 -140.9880292 147.14053451 -142.765625 145.03076172 C-144.6788666 142.76475323 -146.59129648 140.5796812 -148.68359375 138.47607422 C-158.60795573 128.3296525 -164.17943017 115.3341605 -167.515625 101.65576172 C-167.73992187 100.76501953 -167.96421875 99.87427734 -168.1953125 98.95654297 C-173.34029883 74.25356068 -168.7324521 47.06998637 -155.5703125 25.60107422 C-152.360483 20.99991179 -148.78055589 16.76113548 -145.0703125 12.55810547 C-143.15494519 10.3820842 -141.35907844 8.187279 -139.578125 5.90576172 C-125.91152574 -9.76836059 -101.65701996 -20.39252514 -81.203125 -21.90673828 C-51.22817273 -23.880011 -23.23000016 -20.60315414 0 0 Z M-98.515625 31.65576172 C-103.07424382 38.06315372 -105.515625 46.87303351 -105.515625 54.65576172 C-80.435625 54.65576172 -55.355625 54.65576172 -29.515625 54.65576172 C-31.01643492 42.64928233 -35.58864147 34.8482466 -44.515625 26.65576172 C-61.9489949 13.94830535 -84.03399301 15.3909437 -98.515625 31.65576172 Z " fill="#B247D7" transform="translate(2148.515625,329.34423828125)"/>
<path d="M0 0 C0.7371524 -0.0096579 1.47430481 -0.0193158 2.23379517 -0.02926636 C4.61164397 -0.05402944 6.98922377 -0.0666519 9.3671875 -0.07421875 C10.17498657 -0.07716949 10.98278564 -0.08012024 11.81506348 -0.0831604 C27.4579695 -0.09618643 41.60212752 1.51027572 56.2421875 7.23828125 C56.5721875 5.58828125 56.9021875 3.93828125 57.2421875 2.23828125 C71.7621875 2.23828125 86.2821875 2.23828125 101.2421875 2.23828125 C101.2421875 20.71828125 101.2421875 39.19828125 101.2421875 58.23828125 C94.1059375 58.42390625 86.9696875 58.60953125 79.6171875 58.80078125 C77.37470215 58.88271729 75.1322168 58.96465332 72.82177734 59.04907227 C71.03227578 59.0753722 69.24272017 59.09830283 67.453125 59.1171875 C66.07411011 59.18625305 66.07411011 59.18625305 64.66723633 59.25671387 C61.9149174 59.26006763 59.83871923 59.16047218 57.2421875 58.23828125 C55.26625481 56.12595505 53.95316068 54.05990052 52.60464478 51.50572205 C49.14529186 45.74856688 42.83141983 43.207365 36.6171875 41.42578125 C34.83076944 41.00689702 33.03938136 40.60821056 31.2421875 40.23828125 C30.1490625 40.01140625 29.0559375 39.78453125 27.9296875 39.55078125 C16.80893453 38.60834456 4.77775037 38.00938763 -4.9453125 44.30078125 C-7.18448284 46.69437713 -7.69749313 47.78588596 -8.1328125 51.05078125 C-7.74136129 54.37811654 -7.12695058 55.89584514 -4.58496094 58.09326172 C4.31611873 63.67130336 15.90053355 64.51151755 26.07235718 66.07373047 C87.11713128 75.55229492 87.11713128 75.55229492 105.5546875 98.05078125 C115.03744852 111.77795088 116.61234902 128.36293456 114.0546875 144.4921875 C110.8305747 159.35720756 102.78569371 172.38516635 90.2421875 181.23828125 C77.46972688 188.86106106 64.11728808 192.89199854 49.2421875 193.23828125 C48.41009766 193.25874512 47.57800781 193.27920898 46.72070312 193.30029297 C8.06940811 194.12309499 8.06940811 194.12309499 -6.7578125 184.23828125 C-7.0878125 185.88828125 -7.4178125 187.53828125 -7.7578125 189.23828125 C-14.29060036 189.26355127 -20.82337571 189.28111417 -27.35620117 189.29321289 C-29.58048982 189.29825442 -31.80477513 189.30508748 -34.02905273 189.3137207 C-37.21859559 189.32579423 -40.40809479 189.33151121 -43.59765625 189.3359375 C-45.09920509 189.34367943 -45.09920509 189.34367943 -46.63108826 189.35157776 C-47.55196732 189.35165329 -48.47284637 189.35172882 -49.42163086 189.35180664 C-50.23659531 189.35402725 -51.05155975 189.35624786 -51.89122009 189.35853577 C-53.7578125 189.23828125 -53.7578125 189.23828125 -54.7578125 188.23828125 C-54.85711783 186.24940631 -54.88580712 184.25697708 -54.88720703 182.265625 C-54.89035919 180.9876001 -54.89351135 179.7095752 -54.89675903 178.39282227 C-54.89496925 176.98714158 -54.8929183 175.5814612 -54.890625 174.17578125 C-54.89129808 172.74471012 -54.89226814 171.3136391 -54.89352417 169.88256836 C-54.89500094 166.87970901 -54.89284726 163.87687935 -54.88818359 160.87402344 C-54.88248631 157.01675554 -54.88576542 153.15955721 -54.89175606 149.30229187 C-54.89536224 146.34614534 -54.89422282 143.39001542 -54.89162827 140.43386841 C-54.89095915 139.01124056 -54.89178687 137.58861122 -54.89410782 136.16598511 C-54.89663524 134.18096951 -54.89210292 132.19594866 -54.88720703 130.2109375 C-54.88641144 129.07922119 -54.88561584 127.94750488 -54.88479614 126.78149414 C-54.7578125 124.23828125 -54.7578125 124.23828125 -53.7578125 123.23828125 C-52.31491463 123.1453231 -50.86751465 123.12081612 -49.42163086 123.12475586 C-48.04031227 123.12486916 -48.04031227 123.12486916 -46.63108826 123.12498474 C-45.63005569 123.13014603 -44.62902313 123.13530731 -43.59765625 123.140625 C-42.57805313 123.14203995 -41.55845001 123.1434549 -40.50794983 123.14491272 C-37.23704143 123.15053028 -33.96620037 123.16308575 -30.6953125 123.17578125 C-28.48372494 123.18079399 -26.27213632 123.18535729 -24.06054688 123.18945312 C-18.62627893 123.20050541 -13.19205053 123.21726062 -7.7578125 123.23828125 C-7.5717041 123.91084961 -7.3855957 124.58341797 -7.19384766 125.27636719 C-6.93909668 126.16614258 -6.6843457 127.05591797 -6.421875 127.97265625 C-6.1738916 128.85147461 -5.9259082 129.73029297 -5.67041016 130.63574219 C-2.92046945 138.47800219 3.00662915 143.53279834 10.2421875 147.23828125 C22.97364765 153.0285781 39.54064498 153.36156864 52.875 149.1875 C57.76450269 147.22774938 57.76450269 147.22774938 61.2421875 143.23828125 C61.95093185 138.81144155 62.10892204 134.64511987 61.2421875 130.23828125 C52.42782206 118.64678698 27.95497101 117.25367627 14.62109375 115.43359375 C12.84918063 115.2001295 11.07704843 114.96832123 9.3046875 114.73828125 C-12.12799758 111.90145482 -38.10514206 104.12366039 -52.26171875 86.61328125 C-60.67668815 73.25479197 -63.17165624 57.39947688 -60.32714844 41.89013672 C-56.73432948 27.70203681 -48.99574553 17.88250335 -36.7578125 10.23828125 C-25.4696139 3.62610019 -13.05780001 0.1424915 0 0 Z " fill="#B247D7" transform="translate(2261.7578125,307.76171875)"/>
<path d="M0 0 C3 1 3 1 4 3 C5.45823212 3.0270043 6.91660675 3.04639787 8.375 3.0625 C9.59316406 3.07990234 9.59316406 3.07990234 10.8359375 3.09765625 C13.04937142 3.14466334 13.04937142 3.14466334 15 2 C15.33 2.66 15.66 3.32 16 4 C17.19625 3.95875 18.3925 3.9175 19.625 3.875 C23.47209072 3.86826254 26.35544962 4.73556416 30 6 C31.33051006 6.15213732 32.66462135 6.2741703 34 6.375 C39.55743822 6.8784944 44.73634363 8.54683124 50.05859375 10.16015625 C52.81069814 11.09151749 52.81069814 11.09151749 55 11 C55 11.66 55 12.32 55 13 C55.78375 12.9175 56.5675 12.835 57.375 12.75 C61.49967126 13.03446009 64.39573944 14.1907084 68.16796875 15.796875 C71.21041509 17.08939013 74.28346196 18.26752872 77.375 19.4375 C94.65079673 26.06799945 112.01185259 33.20687161 127.52734375 43.38671875 C132.06168995 46.52357049 132.06168995 46.52357049 137.125 48.5 C139.50548304 49.13479548 140.28171426 50.2486703 142 52 C146.14556462 55.33032806 150.41119905 58.31387262 155 61 C156.50772555 61.94613236 158.00695184 62.90587154 159.5 63.875 C160.2321875 64.34679687 160.964375 64.81859375 161.71875 65.3046875 C164.42249542 67.31397776 166.6446474 69.59183681 169 72 C171.08286232 73.98149316 173.19684968 75.92861417 175.3125 77.875 C176.17234497 78.66825684 176.17234497 78.66825684 177.04956055 79.47753906 C180.09862568 82.28200838 183.17299343 85.04653601 186.3125 87.75 C194.06964938 94.50099193 200.5841925 101.97717379 207 110 C210.25380098 114.01206227 210.25380098 114.01206227 213.8125 117.75 C215 119 215 119 215 121 C215.66 121 216.32 121 217 121 C218.18579102 122.33837891 218.18579102 122.33837891 219.50390625 124.2265625 C219.99342773 124.92249512 220.48294922 125.61842773 220.98730469 126.33544922 C221.50711914 127.09100098 222.02693359 127.84655273 222.5625 128.625 C223.09391602 129.3895752 223.62533203 130.15415039 224.17285156 130.94189453 C227.58773332 135.88189895 230.95885879 140.85164371 234.25 145.875 C234.6322876 146.45072754 235.0145752 147.02645508 235.40844727 147.61962891 C237.15391051 150.33062417 238 151.70403996 238 155 C238.66 155 239.32 155 240 155 C240.72703125 156.4540625 240.72703125 156.4540625 241.46875 157.9375 C241.78875977 158.5773584 242.10876953 159.2172168 242.43847656 159.87646484 C243.15449073 161.30882252 243.86997366 162.74144586 244.58496094 164.17431641 C246.43512986 167.88030979 248.29279021 171.58201137 250.171875 175.2734375 C253.79449454 182.40915553 257.18152404 189.50084075 260 197 C260.74642381 198.87642652 261.49639216 200.75144717 262.25 202.625 C262.83333333 204.08333333 263.41666667 205.54166667 264 207 C264.33 207 264.66 207 265 207 C267.35862583 214.94605012 269.56933303 222.8301386 271 231 C271.66 231 272.32 231 273 231 C273.12375 231.969375 273.2475 232.93875 273.375 233.9375 C274.25227091 239.99310617 275.52581357 245.80954095 277.625 251.5625 C279.14100836 255.88312381 279.15977769 259.44633591 279 264 C279.33 264.66 279.66 265.32 280 266 C280.04315813 268.67580435 280.0453968 271.32663282 280 274 C280 275.32 280 276.64 280 278 C279.85302021 279.58528205 279.68602074 281.1688237 279.5 282.75 C279.4071875 283.54921875 279.314375 284.3484375 279.21875 285.171875 C279.1465625 285.77515625 279.074375 286.3784375 279 287 C278.34 287 277.68 287 277 287 C276.9071875 288.3303125 276.9071875 288.3303125 276.8125 289.6875 C273.76121167 310.38678029 259.67719603 333.83659898 247.7109375 350.578125 C246.47756945 352.32398845 245.28714485 354.10047014 244.125 355.89453125 C241.81325493 359.27290869 239.29569202 362.34216565 236.625 365.4375 C235.64178592 366.58190999 234.65871167 367.72644012 233.67578125 368.87109375 C232.97702881 369.68296143 232.97702881 369.68296143 232.26416016 370.51123047 C231.22993336 371.72921328 230.22568442 372.97259506 229.23046875 374.22265625 C225.83935213 378.47322942 222.02806986 381.79131344 217 384 C215.68 384 214.36 384 213 384 C214.29963425 380.10109725 216.71767382 378.62131838 220.05078125 376.5390625 C225.30842861 372.38773373 228.15182766 367.18959835 230.9375 361.25 C233.11874824 356.70718836 235.30861385 352.37881483 238.125 348.1875 C242.27344722 341.49136509 244.16357911 333.82652304 246.31835938 326.31298828 C246.91875035 324.27570172 247.5870776 322.25869885 248.265625 320.24609375 C253.50995163 303.7190785 253.92688361 278.85376722 246 263 C245.45920509 259.07923692 245.01663391 255.15925735 244.60546875 251.22265625 C244.07475919 247.0276163 243.0456706 243.100294 241.8125 239.0625 C241.59255371 238.33232666 241.37260742 237.60215332 241.14599609 236.84985352 C233.73249952 212.59623841 223.28896075 190.48671504 210.43359375 168.66015625 C209 166 209 166 209 164 C208.01 163.67 207.02 163.34 206 163 C206 162.01 206 161.02 206 160 C204.98950753 158.19218434 204.98950753 158.19218434 203.625 156.4375 C203.18414063 155.83808594 202.74328125 155.23867187 202.2890625 154.62109375 C200.95068783 152.87511547 200.95068783 152.87511547 199 151 C198.13022237 149.67679731 197.27845983 148.34170229 196.4375 147 C193.42878926 142.42088902 189.95287293 138.50001643 186.234375 134.48828125 C184.12090614 132.13464548 182.20883352 129.71734317 180.3125 127.1875 C177.51553016 123.50352815 174.60083237 120.88066589 171 118 C167 113.47368421 167 113.47368421 167 111 C166.41734375 110.731875 165.8346875 110.46375 165.234375 110.1875 C162.97213399 108.98519009 161.19423682 107.66174087 159.25 106 C158.63640625 105.484375 158.0228125 104.96875 157.390625 104.4375 C156 103 156 103 156 101 C155.01 100.67 154.02 100.34 153 100 C153 99.34 153 98.68 153 98 C152.01 98 151.02 98 150 98 C148.95880157 97.04297031 147.96939139 96.02969915 147 95 C144.97385756 93.36954466 142.93978391 91.76729149 140.875 90.1875 C140.29459961 89.74245117 139.71419922 89.29740234 139.11621094 88.83886719 C134.53621815 85.35381457 129.83328936 82.12373701 125 79 C123.49966119 77.97966469 121.99966585 76.95882416 120.5 75.9375 C116.77131087 73.44736146 112.94651341 71.23009247 109.00390625 69.09765625 C107.36814216 68.20165292 105.77106367 67.2353285 104.1875 66.25 C102.09623449 65.05499114 100.35658947 64.43640546 98 64 C98 63.34 98 62.68 98 62 C97.29488281 61.71898437 96.58976562 61.43796875 95.86328125 61.1484375 C81.95738377 55.57090154 81.95738377 55.57090154 76.8125 52.8125 C73.24531032 50.9464701 69.74073252 50.15710427 65.78515625 49.4921875 C64.90150391 49.24855469 64.90150391 49.24855469 64 49 C63.67 48.34 63.34 47.68 63 47 C61.15625956 46.43047075 61.15625956 46.43047075 59 46 C57.51767849 45.48821458 56.03857079 44.96704359 54.5625 44.4375 C51.25332115 43.31259762 48.5324458 42.65815041 45 43 C45 42.34 45 41.68 45 41 C43.68 41.33 42.36 41.66 41 42 C41 41.34 41 40.68 41 40 C40.41992188 40.02320313 39.83984375 40.04640625 39.2421875 40.0703125 C34.35945374 40.18311493 30.60359247 39.82002493 26 38 C22.92679015 36.93828662 22.92679015 36.93828662 20 38 C20 37.34 20 36.68 20 36 C16.7 36 13.4 36 10 36 C10 35.34 10 34.68 10 34 C9.0925 34.20625 8.185 34.4125 7.25 34.625 C3.85470759 35.11941921 1.12024313 34.72465292 -2.23046875 34.03515625 C-9.29987196 32.79475921 -16.25266843 32.73175544 -23.40014648 32.79418945 C-25.56310848 32.81250515 -27.72564006 32.81469778 -29.88867188 32.81445312 C-41.28180554 32.84279648 -52.40305909 33.82013978 -63.67382812 35.42578125 C-68.78327922 36.10836039 -68.78327922 36.10836039 -71 35 C-71 35.66 -71 36.32 -71 37 C-71.65226563 37.04898438 -72.30453125 37.09796875 -72.9765625 37.1484375 C-73.85054687 37.22320312 -74.72453125 37.29796875 -75.625 37.375 C-76.48351562 37.44460937 -77.34203125 37.51421875 -78.2265625 37.5859375 C-81.03512944 37.92364626 -81.03512944 37.92364626 -83.75390625 38.91796875 C-88.65249344 40.55083115 -93.6858825 41.42565713 -98.74804688 42.41210938 C-103.6327294 43.39847729 -108.29009286 44.65524979 -112.9934082 46.30639648 C-115.96175916 47.33244407 -118.97607918 48.15330217 -122 49 C-122.99 49.33 -123.98 49.66 -125 50 C-126.53897089 50.30557184 -128.08105942 50.59562028 -129.625 50.875 C-133.9646306 51.7149285 -138.03298671 52.91547021 -142.1875 54.4140625 C-144 55 -144 55 -146 55 C-146.495 55.99 -146.495 55.99 -147 57 C-147.99 57 -148.98 57 -150 57 C-151.35769905 57.40368755 -152.69952592 57.86230532 -154.02734375 58.35546875 C-154.81423584 58.64591064 -155.60112793 58.93635254 -156.41186523 59.2355957 C-157.24532471 59.54972412 -158.07878418 59.86385254 -158.9375 60.1875 C-160.21379272 60.66352661 -160.21379272 60.66352661 -161.51586914 61.14916992 C-172.42460857 65.1956707 -172.42460857 65.1956707 -183.00390625 70.01171875 C-185 71 -185 71 -187.3203125 71.92163086 C-191.78019121 73.71639072 -196.09472947 75.81616062 -200.4375 77.875 C-201.8306543 78.52662109 -201.8306543 78.52662109 -203.25195312 79.19140625 C-207.15267505 81.04043173 -210.93151122 82.83855912 -214.47265625 85.3203125 C-217 87 -217 87 -220 87 C-220.33 87.66 -220.66 88.32 -221 89 C-222.53324117 89.9846238 -224.10206789 90.91432545 -225.6875 91.8125 C-235.06345861 97.31519936 -241.95283961 104.81554572 -249 113 C-250.32 112.67 -251.64 112.34 -253 112 C-253.6875 110.3125 -253.6875 110.3125 -254 108 C-250.7893467 101.22195415 -245.86261836 96.61638031 -239.76953125 92.4921875 C-237.78984217 90.82278082 -237.12120155 89.2991728 -236 87 C-233.375 85.75 -233.375 85.75 -231 85 C-231 84.34 -231 83.68 -231 83 C-229.4609375 81.44921875 -229.4609375 81.44921875 -227.375 79.6875 C-226.27865234 78.75357422 -226.27865234 78.75357422 -225.16015625 77.80078125 C-223.38274391 76.31906861 -221.59968551 74.84487842 -219.8125 73.375 C-217.00946285 71.08351303 -217.00946285 71.08351303 -214.69140625 68.64453125 C-200.79330235 54.98848432 -167.8138136 28 -148 28 C-148 27.34 -148 26.68 -148 26 C-120.2249841 15.07884849 -120.2249841 15.07884849 -106 11 C-104.83210937 10.66097656 -103.66421875 10.32195312 -102.4609375 9.97265625 C-99.25571354 9.07186532 -96.04450084 8.2360927 -92.8125 7.4375 C-91.80832031 7.18871094 -90.80414063 6.93992187 -89.76953125 6.68359375 C-88.39861328 6.34521484 -88.39861328 6.34521484 -87 6 C-86.32453125 5.81566406 -85.6490625 5.63132812 -84.953125 5.44140625 C-82.61355407 4.91266322 -80.3279301 4.69714887 -77.9375 4.5 C-76.9784375 4.41621094 -76.019375 4.33242187 -75.03125 4.24609375 C-72.99052444 4.08041629 -70.94877068 3.92699796 -68.90625 3.78515625 C-67.9265625 3.71167969 -66.946875 3.63820313 -65.9375 3.5625 C-64.58978516 3.47162109 -64.58978516 3.47162109 -63.21484375 3.37890625 C-60.80015989 3.18532287 -60.80015989 3.18532287 -59 1 C-58.67 1.66 -58.34 2.32 -58 3 C-56.3745692 2.85904936 -54.74965949 2.71207913 -53.125 2.5625 C-52.22007812 2.48128906 -51.31515625 2.40007812 -50.3828125 2.31640625 C-47.98889139 2.13010715 -47.98889139 2.13010715 -46 1 C-41.77594642 0.78593715 -37.54748955 0.81421046 -33.31860352 0.81469727 C-31.23366721 0.8125476 -29.14929309 0.79449938 -27.06445312 0.77539062 C-18.55575309 0.74076994 -10.37934033 1.41262899 -2 3 C-2 2.34 -2 1.68 -2 1 C-1.34 0.67 -0.68 0.34 0 0 Z " fill="#B347D8" transform="translate(463,73)"/>
<path d="M0 0 C1 1 1 1 1.12025452 3.28419495 C1.11803391 4.29457321 1.11581329 5.30495148 1.11352539 6.34594727 C1.11344986 7.4870546 1.11337433 8.62816193 1.11329651 9.80384827 C1.10813522 11.0454924 1.10297394 12.28713654 1.09765625 13.56640625 C1.09553383 15.46204567 1.09553383 15.46204567 1.09336853 17.39598083 C1.08870582 20.76124889 1.0797148 24.1264499 1.06866455 27.49169922 C1.05844846 30.9234967 1.05387049 34.35530109 1.04882812 37.78710938 C1.0377738 44.52475824 1.0210171 51.26237525 1 58 C0.12215347 58.13399704 -0.75569305 58.26799408 -1.66014099 58.40605164 C-2.81957718 58.58360489 -3.97901337 58.76115814 -5.17358398 58.9440918 C-6.31955551 59.11933884 -7.46552704 59.29458588 -8.64622498 59.47514343 C-27.44163883 62.41657401 -46.28355739 65.95299123 -59.01171875 81.44921875 C-68.47188013 96.24710342 -68.12788079 112.7990913 -68.5625 129.6875 C-68.706875 135.070625 -68.85125 140.45375 -69 146 C-56.79 146 -44.58 146 -32 146 C-32 160.52 -32 175.04 -32 190 C-76.55 190 -121.1 190 -167 190 C-167 175.48 -167 160.96 -167 146 C-155.45 146 -143.9 146 -132 146 C-132 113.66 -132 81.32 -132 48 C-142.89 48 -153.78 48 -165 48 C-165 33.15 -165 18.3 -165 3 C-135.3 3 -105.6 3 -75 3 C-74.505 22.8 -74.505 22.8 -74 43 C-72.02 39.37 -70.04 35.74 -68 32 C-57.23698612 14.7139474 -41.56954893 5.60318207 -22 1 C-14.83861192 -0.53274313 -7.2804856 -0.33587043 0 0 Z " fill="#B247D7" transform="translate(1958,308)"/>
<path d="M0 0 C1 1 1 1 1.12025452 3.28419495 C1.11803391 4.29457321 1.11581329 5.30495148 1.11352539 6.34594727 C1.11344986 7.4870546 1.11337433 8.62816193 1.11329651 9.80384827 C1.10813522 11.0454924 1.10297394 12.28713654 1.09765625 13.56640625 C1.09553383 15.46204567 1.09553383 15.46204567 1.09336853 17.39598083 C1.08870582 20.76124889 1.0797148 24.1264499 1.06866455 27.49169922 C1.05844846 30.9234967 1.05387049 34.35530109 1.04882812 37.78710938 C1.0377738 44.52475824 1.0210171 51.26237525 1 58 C0.19402374 58.13358917 -0.61195251 58.26717834 -1.44235229 58.40481567 C-2.50922272 58.5820517 -3.57609314 58.75928772 -4.67529297 58.94189453 C-5.72876923 59.1167337 -6.78224548 59.29157288 -7.86764526 59.47171021 C-23.34748799 62.08247547 -37.10478862 64.53357315 -50 74 C-51.051875 74.7425 -52.10375 75.485 -53.1875 76.25 C-67.47819604 90.22312501 -68.23060661 111.53220198 -68.625 130.25 C-68.74875 135.4475 -68.8725 140.645 -69 146 C-56.79 146 -44.58 146 -32 146 C-32 160.52 -32 175.04 -32 190 C-76.22 190 -120.44 190 -166 190 C-166 175.48 -166 160.96 -166 146 C-154.45 146 -142.9 146 -131 146 C-131 113.66 -131 81.32 -131 48 C-141.89 48 -152.78 48 -164 48 C-164 33.15 -164 18.3 -164 3 C-134.63 3 -105.26 3 -75 3 C-74.505 22.8 -74.505 22.8 -74 43 C-71.36 38.38 -68.72 33.76 -66 29 C-52.83354884 12.82407429 -36.27093523 2.30659603 -15.21875 0.12109375 C-10.15511947 -0.15526637 -5.0654673 -0.25290145 0 0 Z " fill="#B247D8" transform="translate(1300,308)"/>
<path d="M0 0 C0.99 0.33 1.98 0.66 3 1 C3.33 3.31 3.66 5.62 4 8 C3.01 8 2.02 8 1 8 C0.34 5.69 -0.32 3.38 -1 1 C-0.67 0.67 -0.34 0.34 0 0 Z " fill="#A736D0" transform="translate(171,485)"/>
<path d="M0 0 C0.66 0 1.32 0 2 0 C5 4.38461538 5 4.38461538 5 7 C3.68 6.67 2.36 6.34 1 6 C0.67 4.02 0.34 2.04 0 0 Z " fill="#BA33EF" transform="translate(381,566)"/>
<path d="M0 0 C1.32 0.33 2.64 0.66 4 1 C2.68 1.33 1.36 1.66 0 2 C0 1.34 0 0.68 0 0 Z " fill="#C836FF" transform="translate(422,72)"/>
<path d="M0 0 C0.66 0 1.32 0 2 0 C2 0.99 2 1.98 2 3 C1.34 3 0.68 3 0 3 C0 2.01 0 1.02 0 0 Z " fill="#FF00FF" transform="translate(143,365)"/>
<path d="M0 0 C1.65 0 3.3 0 5 0 C5 0.33 5 0.66 5 1 C3.35 1 1.7 1 0 1 C0 0.67 0 0.34 0 0 Z " fill="#FF33FF" transform="translate(475,645)"/>
<path d="M0 0 C0.99 0 1.98 0 3 0 C2.67 0.66 2.34 1.32 2 2 C1.34 1.34 0.68 0.68 0 0 Z " fill="#FF00FF" transform="translate(435,72)"/>
<path d="M0 0 C3 1 3 1 3 1 Z " fill="#FF00FF" transform="translate(410,642)"/>
<path d="M0 0 C3 1 3 1 3 1 Z " fill="#FF00FF" transform="translate(398,640)"/>
<path d="M0 0 C3 1 3 1 3 1 Z " fill="#AA00FF" transform="translate(559,525)"/>
<path d="M0 0 C0.66 0.66 1.32 1.32 2 2 C1.34 2 0.68 2 0 2 C0 1.34 0 0.68 0 0 Z " fill="#5500FF" transform="translate(155,441)"/>
<path d="M0 0 C2 1 2 1 2 1 Z " fill="#FF00FF" transform="translate(466,646)"/>
<path d="M0 0 C2 1 2 1 2 1 Z " fill="#FF7FFF" transform="translate(462,646)"/>
<path d="" fill="#FF00FF" transform="translate(0,0)"/>
<path d="M0 0 C2 1 2 1 2 1 Z " fill="#FF00FF" transform="translate(496,643)"/>
<path d="M0 0 C2 1 2 1 2 1 Z " fill="#FF00FF" transform="translate(324,613)"/>
<path d="M0 0 C2 1 2 1 2 1 Z " fill="#FF00FF" transform="translate(630,585)"/>
<path d="M0 0 C2 1 2 1 2 1 Z " fill="#FF00FF" transform="translate(539,525)"/>
<path d="" fill="#0000FF" transform="translate(0,0)"/>
<path d="" fill="#FF00FF" transform="translate(0,0)"/>
<path d="M0 0 C2 1 2 1 2 1 Z " fill="#FF00FF" transform="translate(356,476)"/>
<path d="" fill="#FF00FF" transform="translate(0,0)"/>
<path d="M0 0 C2 1 2 1 2 1 Z " fill="#FF00FF" transform="translate(154,439)"/>
<path d="" fill="#FF00FF" transform="translate(0,0)"/>
<path d="M0 0 C2 1 2 1 2 1 Z " fill="#FF00FF" transform="translate(200,398)"/>
<path d="" fill="#8040FF" transform="translate(0,0)"/>
<path d="" fill="#FF00FF" transform="translate(0,0)"/>
<path d="" fill="#FF00FF" transform="translate(0,0)"/>
<path d="" fill="#FF00FF" transform="translate(0,0)"/>
<path d="" fill="#FF7FFF" transform="translate(0,0)"/>
<path d="" fill="#FF00FF" transform="translate(0,0)"/>
<path d="" fill="#FF00FF" transform="translate(0,0)"/>
<path d="M0 0 C2 1 2 1 2 1 Z " fill="#FF00FF" transform="translate(276,242)"/>
<path d="M0 0 C2 1 2 1 2 1 Z " fill="#FF00FF" transform="translate(228,188)"/>
<path d="M0 0 C2 1 2 1 2 1 Z " fill="#BF40FF" transform="translate(230,187)"/>
<path d="M0 0 C2 1 2 1 2 1 Z " fill="#FF00FF" transform="translate(672,185)"/>
<path d="M0 0 C2 1 2 1 2 1 Z " fill="#0000FF" transform="translate(331,124)"/>
<path d="M0 0 C2 1 2 1 2 1 Z " fill="#FF7FFF" transform="translate(343,121)"/>
<path d="M0 0 C2 1 2 1 2 1 Z " fill="#FF00FF" transform="translate(348,120)"/>
<path d="M0 0 C2 1 2 1 2 1 Z " fill="#FF00FF" transform="translate(470,75)"/>
<path d="M0 0 C2 1 2 1 2 1 Z " fill="#FF00FF" transform="translate(449,73)"/>
<path d="M0 0 C2 1 2 1 2 1 Z " fill="#BF40FF" transform="translate(442,73)"/>
<path d="" fill="#FF00FF" transform="translate(0,0)"/>
<path d="" fill="#FF00FF" transform="translate(0,0)"/>
<path d="" fill="#FF00FF" transform="translate(0,0)"/>
<path d="" fill="#FF00FF" transform="translate(0,0)"/>
<path d="" fill="#FF00FF" transform="translate(0,0)"/>
<path d="" fill="#0000FF" transform="translate(0,0)"/>
<path d="" fill="#FF00FF" transform="translate(0,0)"/>
<path d="" fill="#FF00FF" transform="translate(0,0)"/>
<path d="" fill="#FF00FF" transform="translate(0,0)"/>
<path d="" fill="#FF00FF" transform="translate(0,0)"/>
<path d="" fill="#FF00FF" transform="translate(0,0)"/>
<path d="" fill="#FF00FF" transform="translate(0,0)"/>
<path d="" fill="#FF00FF" transform="translate(0,0)"/>
<path d="" fill="#FF00FF" transform="translate(0,0)"/>
<path d="" fill="#FF00FF" transform="translate(0,0)"/>
<path d="" fill="#FFFFFF" transform="translate(0,0)"/>
<path d="" fill="#FF00FF" transform="translate(0,0)"/>
<path d="" fill="#FF00FF" transform="translate(0,0)"/>
<path d="" fill="#FF00FF" transform="translate(0,0)"/>
<path d="" fill="#FF00FF" transform="translate(0,0)"/>
<path d="" fill="#FF00FF" transform="translate(0,0)"/>
<path d="" fill="#0000FF" transform="translate(0,0)"/>
<path d="" fill="#FF00FF" transform="translate(0,0)"/>
<path d="" fill="#FF00FF" transform="translate(0,0)"/>
<path d="" fill="#FF00FF" transform="translate(0,0)"/>
<path d="" fill="#FF00FF" transform="translate(0,0)"/>
<path d="" fill="#FF00FF" transform="translate(0,0)"/>
<path d="" fill="#FF00FF" transform="translate(0,0)"/>
<path d="" fill="#FF00FF" transform="translate(0,0)"/>
<path d="" fill="#FF00FF" transform="translate(0,0)"/>
<path d="" fill="#FF00FF" transform="translate(0,0)"/>
<path d="" fill="#FF00FF" transform="translate(0,0)"/>
<path d="" fill="#FF00FF" transform="translate(0,0)"/>
<path d="" fill="#FF00FF" transform="translate(0,0)"/>
<path d="" fill="#FF00FF" transform="translate(0,0)"/>
<path d="" fill="#FF00FF" transform="translate(0,0)"/>
<path d="" fill="#FF00FF" transform="translate(0,0)"/>
<path d="" fill="#FF00FF" transform="translate(0,0)"/>
<path d="" fill="#FF00FF" transform="translate(0,0)"/>
<path d="" fill="#FF00FF" transform="translate(0,0)"/>
<path d="" fill="#FF00FF" transform="translate(0,0)"/>
<path d="" fill="#FF00FF" transform="translate(0,0)"/>
<path d="" fill="#FF00FF" transform="translate(0,0)"/>
<path d="" fill="#FF00FF" transform="translate(0,0)"/>
<path d="" fill="#FF00FF" transform="translate(0,0)"/>
<path d="" fill="#FF00FF" transform="translate(0,0)"/>
<path d="" fill="#FF00FF" transform="translate(0,0)"/>
<path d="" fill="#FF00FF" transform="translate(0,0)"/>
<path d="" fill="#FF00FF" transform="translate(0,0)"/>
<path d="" fill="#FF00FF" transform="translate(0,0)"/>
<path d="" fill="#FF00FF" transform="translate(0,0)"/>
<path d="" fill="#FF00FF" transform="translate(0,0)"/>
<path d="" fill="#FF00FF" transform="translate(0,0)"/>
<path d="" fill="#FF00FF" transform="translate(0,0)"/>
<path d="" fill="#FF00FF" transform="translate(0,0)"/>
<path d="" fill="#FF00FF" transform="translate(0,0)"/>
<path d="" fill="#FF00FF" transform="translate(0,0)"/>
<path d="" fill="#FF00FF" transform="translate(0,0)"/>
<path d="" fill="#FF00FF" transform="translate(0,0)"/>
<path d="" fill="#FF00FF" transform="translate(0,0)"/>
<path d="" fill="#FF00FF" transform="translate(0,0)"/>
<path d="" fill="#FF00FF" transform="translate(0,0)"/>
<path d="" fill="#FF00FF" transform="translate(0,0)"/>
<path d="" fill="#FF00FF" transform="translate(0,0)"/>
<path d="" fill="#FF00FF" transform="translate(0,0)"/>
<path d="" fill="#FF00FF" transform="translate(0,0)"/>
<path d="" fill="#FF00FF" transform="translate(0,0)"/>
<path d="" fill="#FFFFFF" transform="translate(0,0)"/>
<path d="" fill="#FF00FF" transform="translate(0,0)"/>
<path d="" fill="#FF00FF" transform="translate(0,0)"/>
<path d="" fill="#FF00FF" transform="translate(0,0)"/>
<path d="" fill="#FF00FF" transform="translate(0,0)"/>
<path d="" fill="#FF00FF" transform="translate(0,0)"/>
<path d="" fill="#FFFFFF" transform="translate(0,0)"/>
<path d="" fill="#FF00FF" transform="translate(0,0)"/>
<path d="" fill="#FF00FF" transform="translate(0,0)"/>
<path d="" fill="#FF00FF" transform="translate(0,0)"/>
<path d="" fill="#FF00FF" transform="translate(0,0)"/>
<path d="" fill="#FF00FF" transform="translate(0,0)"/>
<path d="" fill="#FF00FF" transform="translate(0,0)"/>
<path d="" fill="#FF00FF" transform="translate(0,0)"/>
<path d="" fill="#FF00FF" transform="translate(0,0)"/>
<path d="" fill="#FF00FF" transform="translate(0,0)"/>
<path d="" fill="#FF00FF" transform="translate(0,0)"/>
<path d="" fill="#FF00FF" transform="translate(0,0)"/>
<path d="" fill="#FF00FF" transform="translate(0,0)"/>
<path d="" fill="#FF00FF" transform="translate(0,0)"/>
<path d="" fill="#FF00FF" transform="translate(0,0)"/>
<path d="" fill="#FF00FF" transform="translate(0,0)"/>
<path d="" fill="#FF00FF" transform="translate(0,0)"/>
<path d="" fill="#FF00FF" transform="translate(0,0)"/>
<path d="" fill="#FF00FF" transform="translate(0,0)"/>
<path d="" fill="#FF00FF" transform="translate(0,0)"/>
<path d="" fill="#FF00FF" transform="translate(0,0)"/>
<path d="" fill="#FF00FF" transform="translate(0,0)"/>
<path d="" fill="#FF00FF" transform="translate(0,0)"/>
<path d="" fill="#FF00FF" transform="translate(0,0)"/>
<path d="" fill="#0000FF" transform="translate(0,0)"/>
<path d="" fill="#FF00FF" transform="translate(0,0)"/>
<path d="" fill="#FF00FF" transform="translate(0,0)"/>
<path d="" fill="#FF00FF" transform="translate(0,0)"/>
<path d="" fill="#FF00FF" transform="translate(0,0)"/>
<path d="" fill="#FF00FF" transform="translate(0,0)"/>
<path d="" fill="#FF00FF" transform="translate(0,0)"/>
<path d="" fill="#FF00FF" transform="translate(0,0)"/>
<path d="" fill="#FF00FF" transform="translate(0,0)"/>
<path d="" fill="#FF00FF" transform="translate(0,0)"/>
<path d="" fill="#FF00FF" transform="translate(0,0)"/>
<path d="" fill="#FF00FF" transform="translate(0,0)"/>
<path d="" fill="#FF00FF" transform="translate(0,0)"/>
<path d="" fill="#FF00FF" transform="translate(0,0)"/>
<path d="" fill="#FF00FF" transform="translate(0,0)"/>
<path d="" fill="#FF00FF" transform="translate(0,0)"/>
<path d="" fill="#FF00FF" transform="translate(0,0)"/>
<path d="" fill="#FF00FF" transform="translate(0,0)"/>
<path d="" fill="#FF00FF" transform="translate(0,0)"/>
<path d="" fill="#FF00FF" transform="translate(0,0)"/>
<path d="" fill="#FF00FF" transform="translate(0,0)"/>
<path d="" fill="#FF00FF" transform="translate(0,0)"/>
<path d="" fill="#FF00FF" transform="translate(0,0)"/>
<path d="" fill="#FF00FF" transform="translate(0,0)"/>
<path d="" fill="#FF00FF" transform="translate(0,0)"/>
<path d="" fill="#FF00FF" transform="translate(0,0)"/>
<path d="" fill="#FF00FF" transform="translate(0,0)"/>
<path d="" fill="#FF00FF" transform="translate(0,0)"/>
</svg>
